PathFileType	4	(X/Y/Z)	C:\Users\86182\Documents\cortex\Trimmed_M3_H13.trc
DataRate	CameraRate	NumFrames	NumMarkers	Units	OrigDataRate	OrigDataStartFrame	OrigNumFrames
100.00	100.00	       127	2	mm	100.00	181	       901
Frame#	Time	gripper			box			
		X1	Y1	Z1	X2	Y2	Z2	

181	1.800	268.01767	172.47997	219.56827	270.04614	170.21497	78.43651	
182	1.810	267.99506	172.47977	219.99986	270.04932	170.20459	78.84522	
183	1.820	267.98248	172.47617	220.43527	270.03137	170.20612	79.27431	
184	1.830	267.97836	172.47122	220.87199	269.99060	170.22282	79.72469	
185	1.840	267.98190	172.46712	221.31078	269.86707	170.29070	80.23709	
186	1.850	267.99313	172.46457	221.75385	269.62711	170.42947	80.83530	
187	1.860	268.01154	172.46352	222.20117	269.32065	170.61044	81.48539	
188	1.870	268.03384	172.46486	222.64981	269.03644	170.78185	82.12343	
189	1.880	268.05545	172.47011	223.09628	268.84018	170.90430	82.69982	
190	1.890	268.07370	172.47922	223.53850	268.76962	170.95456	83.18779	
191	1.900	268.08887	172.48949	223.97510	268.84708	170.91846	83.57500	
192	1.910	268.10211	172.49721	224.40459	269.07648	170.79184	83.86021	
193	1.920	268.11349	172.50043	224.82568	269.43341	170.58638	84.05688	
194	1.930	268.12234	172.50046	225.23889	269.85684	170.33611	84.20148	
195	1.940	268.12906	172.49980	225.64705	270.26523	170.09000	84.34811	
196	1.950	268.13562	172.49936	226.05411	270.61664	169.87680	84.53098	
197	1.960	268.14368	172.49821	226.46399	270.93439	169.68668	84.74367	
198	1.970	268.15244	172.49582	226.87987	271.22696	169.51466	84.98402	
199	1.980	268.15881	172.49370	227.30351	271.41699	169.40349	85.29771	
200	1.990	268.16098	172.49451	227.73514	271.40891	169.40791	85.73986	
201	2.000	268.16010	172.49960	228.17404	271.21176	169.52454	86.30274	
202	2.010	268.15833	172.50807	228.61864	270.93744	169.69061	86.91745	
203	2.020	268.15704	172.51817	229.06619	270.67740	169.85320	87.52776	
204	2.030	268.15723	172.52867	229.51357	270.43777	170.00636	88.12722	
205	2.040	268.15900	172.53970	229.95844	270.20560	170.15465	88.71725	
206	2.050	268.16071	172.55281	230.39935	270.01468	170.27689	89.26967	
207	2.060	268.16043	172.56937	230.83542	269.90707	170.34868	89.75528	
208	2.070	268.15756	172.58897	231.26598	269.86597	170.37924	90.18624	
209	2.080	268.15176	172.61046	231.69040	269.82220	170.40665	90.60884	
210	2.090	268.14148	172.63383	232.10866	269.73325	170.45392	91.05151	
211	2.100	268.12595	172.65935	232.52217	269.63092	170.50258	91.49454	
212	2.110	268.10684	172.68523	232.93359	269.56754	170.52325	91.90594	
213	2.120	268.08820	172.70792	233.34540	269.54312	170.51724	92.28964	
214	2.130	268.07455	172.72485	233.75897	269.50946	170.51469	92.68319	
215	2.140	268.06955	172.73598	234.17508	269.44110	170.53358	93.11050	
216	2.150	268.07529	172.74265	234.59460	269.37744	170.55481	93.55225	
217	2.160	268.09195	172.74614	235.01814	269.37125	170.55063	93.97635	
218	2.170	268.11783	172.74702	235.44629	269.41992	170.52408	94.38242	
219	2.180	268.14944	172.74585	235.88051	269.47110	170.50623	94.80186	
220	2.190	268.18222	172.74400	236.32208	269.49530	170.51454	95.25314	
221	2.200	268.21173	172.74355	236.77023	269.52979	170.52744	95.71210	
222	2.210	268.23541	172.74602	237.22281	269.62543	170.51422	96.14294	
223	2.220	268.25293	172.75200	237.67809	269.77249	170.47699	96.54453	
224	2.230	268.26465	172.76207	238.13490	269.90375	170.45052	96.95090	
225	2.240	268.27094	172.77728	238.59135	269.96970	170.46037	97.38701	
226	2.250	268.27231	172.79822	239.04422	269.98361	170.49522	97.84138	
227	2.260	268.26938	172.82451	239.48964	269.96704	170.53658	98.29837	
228	2.270	268.26279	172.85504	239.92506	269.90079	170.59036	98.76823	
229	2.280	268.25348	172.88795	240.35048	269.77582	170.66292	99.25758	
230	2.290	268.24332	172.92043	240.76767	269.64166	170.73303	99.74055	
231	2.300	268.23422	172.94905	241.17908	269.55707	170.77396	100.18648	
232	2.310	268.22665	172.97142	241.58800	269.52194	170.78827	100.59930	
233	2.320	268.21924	172.98732	241.99896	269.48367	170.80582	101.01295	
234	2.330	268.21048	172.99828	242.41589	269.41083	170.84483	101.44797	
235	2.340	268.20120	173.00539	242.83948	269.33792	170.88623	101.88605	
236	2.350	268.19437	173.00822	243.26770	269.31586	170.89970	102.30028	
237	2.360	268.19260	173.00615	243.69891	269.34296	170.88402	102.69536	
238	2.370	268.19727	173.00014	244.13266	269.36816	170.86832	103.10416	
239	2.380	268.20905	172.99239	244.56830	269.36371	170.87111	103.54262	
240	2.390	268.22812	172.98425	245.00455	269.37128	170.87071	103.98175	
241	2.400	268.25287	172.97557	245.43985	269.45309	170.83092	104.37990	
242	2.410	268.28012	172.96603	245.87323	269.61996	170.74281	104.72815	
243	2.420	268.30637	172.95644	246.30487	269.82849	170.62871	105.05060	
244	2.430	268.32822	172.94812	246.73538	270.04480	170.50760	105.36389	
245	2.440	268.34280	172.94186	247.16389	270.28250	170.37337	105.65555	
246	2.450	268.34882	172.93732	247.58862	270.54474	170.22513	105.92221	
247	2.460	268.34641	172.93324	248.00888	270.76572	170.09903	106.20557	
248	2.470	268.33600	172.92883	248.42516	270.86819	170.03728	106.55466	
249	2.480	268.31735	172.92500	248.83812	270.86627	170.03264	106.96194	
250	2.490	268.29010	172.92357	249.24902	270.85477	170.03416	107.37011	
251	2.500	268.25369	172.92554	249.66026	270.89047	170.01157	107.74507	
252	2.510	268.20813	172.92984	250.07388	270.92673	169.99095	108.11600	
253	2.520	268.15576	172.93404	250.49091	270.88873	170.01332	108.53035	
254	2.530	268.10211	172.93674	250.91245	270.78931	170.07103	108.98436	
255	2.540	268.05356	172.93878	251.33963	270.72290	170.11209	109.42607	
256	2.550	268.01401	172.94168	251.77136	270.74542	170.10739	109.82492	
257	2.560	267.98535	172.94481	252.20467	270.80655	170.08733	110.21011	
258	2.570	267.96924	172.94533	252.63794	270.82446	170.09782	110.62770	
259	2.580	267.96646	172.94148	253.07178	270.80582	170.13280	111.07253	
260	2.590	267.97446	172.93520	253.50699	270.84225	170.13741	111.49077	
261	2.600	267.98810	172.93021	253.94293	270.98682	170.07945	111.85144	
262	2.610	268.00339	172.92839	254.37810	271.17969	169.99165	112.18859	
263	2.620	268.01813	172.92903	254.81168	271.31821	169.93210	112.55917	
264	2.630	268.03012	172.93080	255.24530	271.37219	169.91844	112.97604	
265	2.640	268.03690	172.93382	255.68207	271.37704	169.93082	113.41525	
266	2.650	268.03619	172.93947	256.12244	271.33298	169.96854	113.87788	
267	2.660	268.02600	172.94853	256.56250	271.20551	170.05081	114.38689	
268	2.670	268.00580	172.96025	256.99805	271.02466	170.16148	114.92358	
269	2.680	267.97830	172.97295	257.42758	270.88858	170.24521	115.42569	
270	2.690	267.94809	172.98451	257.85162	270.85083	170.26991	115.85968	
271	2.700	267.91843	172.99298	258.27069	270.85736	170.26494	116.26222	
272	2.710	267.89063	172.99782	258.68576	270.82162	170.28140	116.69164	
273	2.720	267.86594	173.00011	259.09900	270.74152	170.32411	117.15184	
274	2.730	267.84680	173.00096	259.51361	270.69870	170.34821	117.59227	
275	2.740	267.83572	173.00017	259.93317	270.74295	170.32397	117.98090	
276	2.750	267.83414	172.99670	260.35980	270.82397	170.27831	118.34792	
277	2.760	267.84119	172.99030	260.79266	270.86154	170.25691	118.74446	
278	2.770	267.85345	172.98227	261.22864	270.86160	170.25842	119.17184	
279	2.780	267.86786	172.97467	261.66626	270.91415	170.23402	119.57903	
280	2.790	267.88406	172.96902	262.10657	271.07150	170.15424	119.93227	
281	2.800	267.90213	172.96596	262.55057	271.27371	170.05096	120.26118	
282	2.810	267.91962	172.96593	262.99689	271.41791	169.98048	120.62315	
283	2.820	267.93362	172.96979	263.44180	271.47391	169.95959	121.03636	
284	2.830	267.94342	172.97832	263.88165	271.47800	169.96794	121.47951	
285	2.840	267.94934	172.99089	264.31479	271.43073	170.00325	121.94888	
286	2.850	267.95169	173.00534	264.74188	271.29639	170.08200	122.46059	
287	2.860	267.95093	173.01920	265.16422	271.10410	170.18552	122.99471	
288	2.870	267.94760	173.03136	265.58261	270.95422	170.25752	123.49344	
289	2.880	267.94183	173.04230	265.99786	270.90320	170.26698	123.92670	
290	2.890	267.93454	173.05226	266.41107	270.89676	170.24524	124.32866	
291	2.900	267.92874	173.05977	266.82275	270.84613	170.24413	124.75235	
292	2.910	267.92798	173.06255	267.23254	270.74911	170.26793	125.19954	
293	2.920	267.93405	173.05952	267.64020	270.68781	170.27307	125.62346	
294	2.930	267.94547	173.05182	268.04675	270.70923	170.23479	126.00089	
295	2.940	267.95886	173.04172	268.45496	270.75662	170.18626	126.37143	
296	2.950	267.97192	173.03070	268.86780	270.74237	170.17732	126.78912	
297	2.960	267.98471	173.01854	269.28717	270.66455	170.20801	127.25215	
298	2.970	267.99817	173.00497	269.71347	270.60306	170.23143	127.71005	
299	2.980	268.01276	172.99104	270.14606	270.60046	170.22308	128.13829	
300	2.990	268.02869	172.97861	270.58368	270.59482	170.21936	128.57669	
301	3.000	268.04648	172.96867	271.02509	270.49518	170.27315	129.08072	
302	3.010	268.06635	172.96083	271.46863	270.30219	170.38394	129.64755	
303	3.020	268.08792	172.95462	271.91235	270.11041	170.49699	130.21623	
304	3.030	268.10947	172.95050	272.35455	269.99762	170.56773	130.73721	
305	3.040	268.12814	172.94983	272.79410	269.96548	170.59604	131.20886	
306	3.050	268.14130	172.95436	273.23026	269.99704	170.59239	131.64059	
307	3.060	268.14764	172.96497	273.66339	270.10666	170.54759	132.02077	
